<!-- PitchShow — X / Twitter Avatar, 400×400px, happy ^^ -->
<svg xmlns="http://www.w3.org/2000/svg" viewBox="0 0 48 48" width="400" height="400">
  <defs>
    <radialGradient id="pb" cx="40%" cy="28%" r="62%">
      <stop offset="0%"   stop-color="#FFF5EE"/>
      <stop offset="52%"  stop-color="#FFE0CA"/>
      <stop offset="100%" stop-color="#FFCBB0"/>
    </radialGradient>
    <linearGradient id="bg" x1="0" y1="0" x2="1" y2="1">
      <stop offset="0%"   stop-color="#ff6b9d"/>
      <stop offset="50%"  stop-color="#ff9055"/>
      <stop offset="100%" stop-color="#ffca60"/>
    </linearGradient>
  </defs>
  <circle cx="24" cy="24" r="24" fill="url(#bg)"/>
  <g transform="translate(0,-2)">
    <path d="M24,14 C21.5,5.5 4,9.5 4,21.5 C4,34 12.5,45 24,45 C35.5,45.5 44,34 44,21 C44,9 26.5,5 24,14 Z" fill="url(#pb)"/>
    <ellipse cx="27.5" cy="9.5" rx="4.8" ry="7.2" fill="#3d6428" transform="rotate(20 27.5 9.5)"/>
    <path d="M24,14 C24.5,11.5 26,10 27.5,8.5" stroke="#5a3818" stroke-width="1.3" fill="none" stroke-linecap="round"/>
    <ellipse cx="10" cy="33.5" rx="6.5" ry="4" fill="rgba(255,100,70,0.28)"/>
    <ellipse cx="38" cy="33.5" rx="6.5" ry="4" fill="rgba(255,100,70,0.28)"/>
    <path d="M12.5,29 Q16,24 19.5,29" stroke="#1a0810" stroke-width="2.2" fill="none" stroke-linecap="round"/>
    <path d="M28.5,29 Q32,24 35.5,29" stroke="#1a0810" stroke-width="2.2" fill="none" stroke-linecap="round"/>
    <path d="M21.5,35 Q24,37.5 26.5,35" stroke="#1a0810" stroke-width="1.6" fill="none" stroke-linecap="round"/>
  </g>
</svg>