<!-- PitchShow — GitHub / Professional Avatar, 400×400px -->
<svg xmlns="http://www.w3.org/2000/svg" viewBox="0 0 48 48" width="400" height="400">
  <defs>
    <radialGradient id="pb" cx="40%" cy="28%" r="62%">
      <stop offset="0%"   stop-color="#FFF9F4"/>
      <stop offset="52%"  stop-color="#FFE8D8"/>
      <stop offset="100%" stop-color="#FFD0BA"/>
    </radialGradient>
    <radialGradient id="bg" cx="50%" cy="45%" r="60%">
      <stop offset="0%"   stop-color="#1a0a2e"/>
      <stop offset="100%" stop-color="#0d0d18"/>
    </radialGradient>
  </defs>
  <circle cx="24" cy="24" r="24" fill="url(#bg)"/>
  <g transform="translate(0,-2)">
    <path d="M24,14 C21.5,5.5 4,9.5 4,21.5 C4,34 12.5,45 24,45 C35.5,45.5 44,34 44,21 C44,9 26.5,5 24,14 Z" fill="url(#pb)"/>
    <ellipse cx="27.5" cy="9.5" rx="4.8" ry="7.2" fill="#3d6428" transform="rotate(20 27.5 9.5)"/>
    <path d="M24,14 C24.5,11.5 26,10 27.5,8.5" stroke="#5a3818" stroke-width="1.3" fill="none" stroke-linecap="round"/>
    <ellipse cx="10" cy="33.5" rx="5.5" ry="3.2" fill="rgba(255,140,120,0.15)"/>
    <ellipse cx="38" cy="33.5" rx="5.5" ry="3.2" fill="rgba(255,140,120,0.15)"/>
    <circle cx="16" cy="27" r="2.2" fill="#1a0810"/>
    <circle cx="32" cy="27" r="2.2" fill="#1a0810"/>
  </g>
</svg>